<svg width="45" height="55" viewBox="0 0 45 55" fill="none" xmlns="http://www.w3.org/2000/svg">
<g clip-path="url(#clip0_288_177)">
<path d="M10 29.0279V16.8057H6.25C5.25544 16.8057 4.30161 17.2885 3.59835 18.1481C2.89509 19.0076 2.5 20.1734 2.5 21.389V48.889C2.50186 49.1727 2.56833 49.4502 2.69197 49.6904C2.81561 49.9305 2.99152 50.1239 3.2 50.2487C3.40085 50.3604 3.6223 50.405 3.84184 50.3782C4.06139 50.3514 4.27122 50.254 4.45 50.0959L10.8875 44.3057H27.6875C28.1613 44.3228 28.6329 44.2208 29.0731 44.0061C29.5133 43.7914 29.9127 43.4686 30.2467 43.0575C30.5807 42.6465 30.8421 42.156 31.0146 41.6165C31.1872 41.0769 31.2673 40.4998 31.25 39.9209V38.1946H17.5C15.5109 38.1946 13.6032 37.2288 12.1967 35.5097C10.7902 33.7906 10 31.459 10 29.0279Z" fill="white"/>
<path d="M38.75 6.11133H17.5C16.5054 6.11133 15.5516 6.59421 14.8483 7.45376C14.1451 8.3133 13.75 9.47909 13.75 10.6947V29.028C13.75 30.2436 14.1451 31.4094 14.8483 32.2689C15.5516 33.1284 16.5054 33.6113 17.5 33.6113H34.4375L40.4125 39.2794C40.5901 39.4399 40.7994 39.54 41.0189 39.5695C41.2385 39.599 41.4606 39.5569 41.6625 39.4474C41.8752 39.3236 42.055 39.1288 42.181 38.8856C42.3071 38.6423 42.3743 38.3604 42.375 38.0724V10.6947C42.3755 9.5051 41.9977 8.36188 41.3212 7.5066C40.6448 6.65131 39.7227 6.15098 38.75 6.11133Z" fill="white"/>
</g>
<defs>
<clipPath id="clip0_288_177">
<rect width="45" height="55" fill="white"/>
</clipPath>
</defs>
</svg>
