<svg width="121" height="121" viewBox="0 0 121 121" fill="none" xmlns="http://www.w3.org/2000/svg">
<path d="M101.602 14.625H19.1016C17.7755 14.625 16.5037 15.1518 15.566 16.0895C14.6283 17.0271 14.1016 18.2989 14.1016 19.625V102.125C14.1016 103.451 14.6283 104.723 15.566 105.661C16.5037 106.598 17.7755 107.125 19.1016 107.125H101.602C102.928 107.125 104.199 106.598 105.137 105.661C106.075 104.723 106.602 103.451 106.602 102.125V19.625C106.602 18.2989 106.075 17.0271 105.137 16.0895C104.199 15.1518 102.928 14.625 101.602 14.625Z" stroke="#0043FF" stroke-width="5" stroke-linecap="round" stroke-linejoin="round"/>
<path d="M53.0516 107.125C51.4766 102.425 49.7516 98.2751 50.9016 92.7751C46.6016 87.1751 42.6266 69.6251 46.1766 55.7251C54.0766 57.7251 61.8016 60.1751 68.2516 65.9501C73.0939 60.4714 79.3454 56.4248 86.3266 54.2501C83.3112 45.8486 82.1679 36.8897 82.9766 28.0001C92.6266 27.3001 100.702 32.4001 106.402 38.0001" stroke="#0043FF" stroke-width="6" stroke-linecap="round" stroke-linejoin="round"/>
<path d="M72.1794 92.0493C74.1163 90.6992 74.4831 87.8784 72.9987 85.749C71.5143 83.6196 68.7408 82.9878 66.804 84.338C64.8671 85.6882 64.5003 88.509 65.9847 90.6384C67.4691 92.7678 70.2426 93.3995 72.1794 92.0493Z" stroke="#0043FF" stroke-width="4" stroke-linecap="round" stroke-linejoin="round"/>
<path d="M99.4405 69.7326C100.906 68.1352 100.667 65.5312 98.9065 63.9166C97.1462 62.3019 94.5314 62.288 93.0661 63.8854C91.6008 65.4828 91.8398 68.0868 93.6001 69.7014C95.3603 71.3161 97.9751 71.33 99.4405 69.7326Z" stroke="#0043FF" stroke-width="4" stroke-linecap="round" stroke-linejoin="round"/>
</svg>
