<svg width="53" height="43" viewBox="0 0 53 43" fill="none" xmlns="http://www.w3.org/2000/svg">
<path d="M22.2097 1.8169C19.8784 -0.605634 16.0952 -0.605634 13.7639 1.8169L2.24847 13.783C-0.0828247 16.2056 -0.0828247 20.1368 2.24847 22.5593L13.7639 34.5254C16.0952 36.948 19.8784 36.948 22.2097 34.5254L33.7252 22.5593C36.0565 20.1368 36.0565 16.2056 33.7252 13.783L22.2097 1.8169ZM15.9957 18.1712C15.9957 17.6224 16.2055 17.0961 16.5789 16.7081C16.9523 16.3201 17.4587 16.1021 17.9868 16.1021C18.5149 16.1021 19.0214 16.3201 19.3948 16.7081C19.7682 17.0961 19.978 17.6224 19.978 18.1712C19.978 18.7199 19.7682 19.2462 19.3948 19.6342C19.0214 20.0222 18.5149 20.2402 17.9868 20.2402C17.4587 20.2402 16.9523 20.0222 16.5789 19.6342C16.2055 19.2462 15.9957 18.7199 15.9957 18.1712ZM7.36738 16.1021C7.89546 16.1021 8.40192 16.3201 8.77533 16.7081C9.14874 17.0961 9.35852 17.6224 9.35852 18.1712C9.35852 18.7199 9.14874 19.2462 8.77533 19.6342C8.40192 20.0222 7.89546 20.2402 7.36738 20.2402C6.83929 20.2402 6.33284 20.0222 5.95942 19.6342C5.58601 19.2462 5.37623 18.7199 5.37623 18.1712C5.37623 17.6224 5.58601 17.0961 5.95942 16.7081C6.33284 16.3201 6.83929 16.1021 7.36738 16.1021ZM17.9868 31.2753C17.4587 31.2753 16.9523 31.0573 16.5789 30.6693C16.2055 30.2812 15.9957 29.755 15.9957 29.2062C15.9957 28.6575 16.2055 28.1312 16.5789 27.7432C16.9523 27.3551 17.4587 27.1371 17.9868 27.1371C18.5149 27.1371 19.0214 27.3551 19.3948 27.7432C19.7682 28.1312 19.978 28.6575 19.978 29.2062C19.978 29.755 19.7682 30.2812 19.3948 30.6693C19.0214 31.0573 18.5149 31.2753 17.9868 31.2753ZM28.6063 16.1021C29.1343 16.1021 29.6408 16.3201 30.0142 16.7081C30.3876 17.0961 30.5974 17.6224 30.5974 18.1712C30.5974 18.7199 30.3876 19.2462 30.0142 19.6342C29.6408 20.0222 29.1343 20.2402 28.6063 20.2402C28.0782 20.2402 27.5717 20.0222 27.1983 19.6342C26.8249 19.2462 26.6151 18.7199 26.6151 18.1712C26.6151 17.6224 26.8249 17.0961 27.1983 16.7081C27.5717 16.3201 28.0782 16.1021 28.6063 16.1021ZM17.9868 9.2052C17.4587 9.2052 16.9523 8.98721 16.5789 8.59919C16.2055 8.21116 15.9957 7.68489 15.9957 7.13613C15.9957 6.58738 16.2055 6.06111 16.5789 5.67308C16.9523 5.28505 17.4587 5.06706 17.9868 5.06706C18.5149 5.06706 19.0214 5.28505 19.3948 5.67308C19.7682 6.06111 19.978 6.58738 19.978 7.13613C19.978 7.68489 19.7682 8.21116 19.3948 8.59919C19.0214 8.98721 18.5149 9.2052 17.9868 9.2052ZM25.9514 37.4825C25.9514 40.5257 28.3325 43 31.2611 43H47.1903C50.1189 43 52.5 40.5257 52.5 37.4825V20.9299C52.5 17.8867 50.1189 15.4124 47.1903 15.4124H37.7074C38.6698 18.516 37.9646 22.0507 35.6002 24.5077L25.9514 34.5341V37.4825ZM39.2257 27.1371C39.7538 27.1371 40.2602 27.3551 40.6336 27.7432C41.0071 28.1312 41.2168 28.6575 41.2168 29.2062C41.2168 29.755 41.0071 30.2812 40.6336 30.6693C40.2602 31.0573 39.7538 31.2753 39.2257 31.2753C38.6976 31.2753 38.1912 31.0573 37.8177 30.6693C37.4443 30.2812 37.2346 29.755 37.2346 29.2062C37.2346 28.6575 37.4443 28.1312 37.8177 27.7432C38.1912 27.3551 38.6976 27.1371 39.2257 27.1371Z" fill="white"/>
</svg>
